<svg xmlns="http://www.w3.org/2000/svg" viewBox="0 0 472.5 593"><defs><style>.cls-1,.cls-2{fill:none;}.cls-1{stroke:#000;}.cls-1,.cls-2,.cls-3{stroke-miterlimit:10;stroke-width:23px;}.cls-2,.cls-3{stroke:#fff;}.cls-3,.cls-4,.cls-5{fill:#fff;}.cls-5{opacity:0.35;}</style></defs><title>PDF_Logo_Icon_SVG_On_HOVER_Shaded_White</title><g id="Layer_2" data-name="Layer 2"><g id="Layer_1-2" data-name="Layer 1"><path class="cls-1" d="M70,342.33"/><path class="cls-2" d="M70,342.33V65.3a54,54,0,0,1,53.8-53.8H291.5L461,181V527.7a54,54,0,0,1-53.8,53.8H123.8A54,54,0,0,1,70,527.7V469"/><path class="cls-3" d="M461,181H345.3a54,54,0,0,1-53.8-53.8V11.5"/><path class="cls-4" d="M194.05,382.19a22.83,22.83,0,0,0-8.7-6.45q-5.31-2.32-13.94-2.32h-9.48v62.73h9.77a36.86,36.86,0,0,0,13-2,21.7,21.7,0,0,0,8.8-6,26,26,0,0,0,5.28-10,50.12,50.12,0,0,0,1.75-14A46.31,46.31,0,0,0,199,392,26,26,0,0,0,194.05,382.19Z"/><path class="cls-4" d="M103.19,375.49A14,14,0,0,0,98,373.6a40.15,40.15,0,0,0-5.67-.39h-8v31.3h8.41a20.35,20.35,0,0,0,7.52-1.21,12.85,12.85,0,0,0,5-3.39,14.66,14.66,0,0,0,2.92-5.2,21,21,0,0,0,1-6.59,16.56,16.56,0,0,0-1.71-8A11.82,11.82,0,0,0,103.19,375.49Z"/><path class="cls-4" d="M336,321.5H12a12,12,0,0,0-12,12v137a12,12,0,0,0,12,12H336a12,12,0,0,0,12-12v-137A12,12,0,0,0,336,321.5Zm-209.71,79a26.55,26.55,0,0,1-7.06,10.09,31.1,31.1,0,0,1-11.37,6.24A52.6,52.6,0,0,1,92,419H84.3v29.44a2,2,0,0,1-.46,1.28,3.25,3.25,0,0,1-1.53.93,14.92,14.92,0,0,1-2.85.57,39.63,39.63,0,0,1-4.56.21,39.83,39.83,0,0,1-4.53-.21,15,15,0,0,1-2.89-.57,3,3,0,0,1-1.5-.93,2.08,2.08,0,0,1-.43-1.28v-83a6.65,6.65,0,0,1,1.75-5,6.37,6.37,0,0,1,4.6-1.68H93.64q3.28,0,6.24.25a66.09,66.09,0,0,1,7.09,1.07,31.39,31.39,0,0,1,8.38,3,24.94,24.94,0,0,1,7.24,5.6,23.34,23.34,0,0,1,4.56,7.91,30.93,30.93,0,0,1,1.57,10.16A36.46,36.46,0,0,1,126.29,400.51Zm90.29,24.7a36.86,36.86,0,0,1-9.52,14.72A38.15,38.15,0,0,1,192,448.31,73.77,73.77,0,0,1,170.85,451h-22a5.83,5.83,0,0,1-4-1.39q-1.61-1.39-1.6-4.53V364.66q0-3.14,1.6-4.53a5.83,5.83,0,0,1,4-1.39h23.67q12.33,0,20.92,2.89a37.92,37.92,0,0,1,14.47,8.55,36.71,36.71,0,0,1,8.95,14,55.89,55.89,0,0,1,3.07,19.32Q219.89,416.2,216.58,425.22ZM286.87,370a8.08,8.08,0,0,1-.57,2.32,3.7,3.7,0,0,1-.89,1.28,1.7,1.7,0,0,1-1.14.43H254.11v24.81h28.3a1.92,1.92,0,0,1,1.14.36,3,3,0,0,1,.89,1.21,8,8,0,0,1,.57,2.28,35.83,35.83,0,0,1,0,7.13,9,9,0,0,1-.57,2.35,3.27,3.27,0,0,1-.89,1.32,1.79,1.79,0,0,1-1.14.39h-28.3v34.36a2.19,2.19,0,0,1-.43,1.35,3.21,3.21,0,0,1-1.53,1,13.74,13.74,0,0,1-2.89.61,48.4,48.4,0,0,1-9.09,0,13.11,13.11,0,0,1-2.89-.61,3.46,3.46,0,0,1-1.53-1,2.08,2.08,0,0,1-.46-1.35V364.66q0-3.14,1.6-4.53a5.83,5.83,0,0,1,4-1.39h43.42a1.8,1.8,0,0,1,1.14.39,3.3,3.3,0,0,1,.89,1.28,8.66,8.66,0,0,1,.57,2.39,31.81,31.81,0,0,1,.18,3.64A30.84,30.84,0,0,1,286.87,370Z"/><path class="cls-5" d="M325,334H70V65.3a54,54,0,0,1,53.8-53.8H291.5L461,181V527.7a54,54,0,0,1-53.8,53.8H123.8A54,54,0,0,1,70,527.7V467H326Z"/></g></g></svg>