<svg xmlns="http://www.w3.org/2000/svg" viewBox="0 0 472.5 593"><defs><style>.cls-1{fill:none;}.cls-1,.cls-2{stroke:#fff;stroke-miterlimit:10;stroke-width:23px;}.cls-2,.cls-3,.cls-4{fill:#fff;}.cls-4{opacity:0.35;}</style></defs><title>RAR_Logo_Icon_SVG_On_HOVER_Shaded_White</title><g id="Layer_2" data-name="Layer 2"><g id="Layer_1-2" data-name="Layer 1"><path class="cls-1" d="M325,334H70V65.3a54,54,0,0,1,53.8-53.8H291.5L461,181V527.7a54,54,0,0,1-53.8,53.8H123.8A54,54,0,0,1,70,527.7V467H326Z"/><path class="cls-2" d="M461,181H345.3a54,54,0,0,1-53.8-53.8V11.5"/><polygon class="cls-3" points="171.9 376.35 158.85 415.56 185.01 415.56 171.97 376.35 171.9 376.35"/><path class="cls-3" d="M336,321.5H12a12,12,0,0,0-12,12v137a12,12,0,0,0,12,12H336a12,12,0,0,0,12-12v-137A12,12,0,0,0,336,321.5ZM124.7,449.88a2.28,2.28,0,0,1-1.35.89,13.5,13.5,0,0,1-3.14.5q-2.07.14-5.63.14-3,0-4.78-.14a10.62,10.62,0,0,1-2.82-.53,3,3,0,0,1-1.46-1,5.55,5.55,0,0,1-.71-1.46l-8.27-20.6q-1.5-3.49-2.92-6.2a19.82,19.82,0,0,0-3.17-4.53,11.59,11.59,0,0,0-4-2.74,14,14,0,0,0-5.28-.93H75.3v35.15a2,2,0,0,1-.46,1.28,3.25,3.25,0,0,1-1.53.93,14.92,14.92,0,0,1-2.85.57,39.63,39.63,0,0,1-4.56.21,39.81,39.81,0,0,1-4.53-.21,15,15,0,0,1-2.89-.57,3,3,0,0,1-1.5-.93,2.08,2.08,0,0,1-.43-1.28V364.66q0-3.14,1.6-4.53a5.83,5.83,0,0,1,4-1.39H86q3.64,0,6,.14t4.28.36a38.89,38.89,0,0,1,10,2.71,24,24,0,0,1,7.56,5,20.93,20.93,0,0,1,4.74,7.34,26.87,26.87,0,0,1,1.64,9.73,28.57,28.57,0,0,1-1.18,8.45,21.66,21.66,0,0,1-3.46,6.81,22.75,22.75,0,0,1-5.63,5.2,30.46,30.46,0,0,1-7.63,3.56,21.31,21.31,0,0,1,3.89,2.42,20.54,20.54,0,0,1,3.42,3.46,33.32,33.32,0,0,1,3,4.63,60,60,0,0,1,2.78,5.88l7.77,18.18q1.07,2.71,1.43,4a7.67,7.67,0,0,1,.36,2A2.78,2.78,0,0,1,124.7,449.88Zm90.11.43a4.65,4.65,0,0,1-2.78.93q-2,.18-5.49.18t-5.67-.11a14,14,0,0,1-3.1-.43,2.82,2.82,0,0,1-1.5-.89,4.86,4.86,0,0,1-.71-1.5L189.36,430H154.72l-5.85,18a5.76,5.76,0,0,1-.75,1.68,3.05,3.05,0,0,1-1.5,1.07,11,11,0,0,1-2.92.53q-1.89.14-5,.14a47.44,47.44,0,0,1-5.13-.21,3.91,3.91,0,0,1-2.57-1,2.78,2.78,0,0,1-.5-2.32,23.24,23.24,0,0,1,1.07-4L160.06,362a7.16,7.16,0,0,1,1-2,3.53,3.53,0,0,1,1.82-1.14,14.37,14.37,0,0,1,3.46-.5q2.21-.11,5.85-.11,4.21,0,6.7.11a17.88,17.88,0,0,1,3.89.5,3.71,3.71,0,0,1,2,1.18,6.93,6.93,0,0,1,1,2.14L214.31,444a24.87,24.87,0,0,1,1.07,4.06A2.45,2.45,0,0,1,214.81,450.31Zm80.56-.43a2.28,2.28,0,0,1-1.35.89,13.5,13.5,0,0,1-3.14.5q-2.07.14-5.63.14-3,0-4.78-.14a10.62,10.62,0,0,1-2.82-.53,3,3,0,0,1-1.46-1,5.55,5.55,0,0,1-.71-1.46l-8.27-20.6q-1.5-3.49-2.92-6.2a19.82,19.82,0,0,0-3.17-4.53,11.59,11.59,0,0,0-4-2.74,14,14,0,0,0-5.28-.93H246v35.15a2,2,0,0,1-.46,1.28,3.25,3.25,0,0,1-1.53.93,14.92,14.92,0,0,1-2.85.57,48.39,48.39,0,0,1-9.09,0,15,15,0,0,1-2.89-.57,3,3,0,0,1-1.5-.93,2.08,2.08,0,0,1-.43-1.28V364.66q0-3.14,1.6-4.53a5.83,5.83,0,0,1,4-1.39h23.88q3.64,0,6,.14t4.28.36a38.89,38.89,0,0,1,10,2.71,24,24,0,0,1,7.56,5,20.93,20.93,0,0,1,4.74,7.34,26.87,26.87,0,0,1,1.64,9.73,28.57,28.57,0,0,1-1.18,8.45,21.66,21.66,0,0,1-3.46,6.81,22.75,22.75,0,0,1-5.63,5.2,30.46,30.46,0,0,1-7.63,3.56,21.31,21.31,0,0,1,3.89,2.42,20.54,20.54,0,0,1,3.42,3.46,33.32,33.32,0,0,1,3,4.63,60,60,0,0,1,2.78,5.88l7.77,18.18q1.07,2.71,1.43,4a7.67,7.67,0,0,1,.36,2A2.78,2.78,0,0,1,295.37,449.88Z"/><path class="cls-3" d="M262.65,373.85a26.06,26.06,0,0,0-3.24-.57,45.55,45.55,0,0,0-5-.21H246v26.16h9.55a22.88,22.88,0,0,0,7-1,14,14,0,0,0,5-2.71,11.09,11.09,0,0,0,3-4.17,14.11,14.11,0,0,0,1-5.42,13.69,13.69,0,0,0-2.07-7.7A11.24,11.24,0,0,0,262.65,373.85Z"/><path class="cls-3" d="M92,373.85a26.06,26.06,0,0,0-3.24-.57,45.55,45.55,0,0,0-5-.21H75.3v26.16h9.55a22.88,22.88,0,0,0,7-1,14,14,0,0,0,5-2.71,11.09,11.09,0,0,0,3-4.17,14.11,14.11,0,0,0,1-5.42,13.69,13.69,0,0,0-2.07-7.7A11.24,11.24,0,0,0,92,373.85Z"/><path class="cls-4" d="M325,334H70V65.3a54,54,0,0,1,53.8-53.8H291.5L461,181V527.7a54,54,0,0,1-53.8,53.8H123.8A54,54,0,0,1,70,527.7V467H326Z"/></g></g></svg>