<svg xmlns="http://www.w3.org/2000/svg" viewBox="0 0 748.51 634.84"><defs><style>.cls-1,.cls-3{fill:#fff;}.cls-2{fill:none;stroke:#fff;stroke-miterlimit:10;stroke-width:26px;}.cls-3{opacity:0.35;}</style></defs><title>VISIO_File_Logo_Icon_SVG_On_HOVER_Shaded_White</title><g id="Layer_2" data-name="Layer 2"><g id="Layer_3" data-name="Layer 3"><path class="cls-1" d="M725.49,43.69H413V69.27h309.9V560.45H408.37V586H725.49a23.05,23.05,0,0,0,23-23V66.71A23.05,23.05,0,0,0,725.49,43.69Z"/><rect class="cls-1" x="465.4" y="200.7" width="112.61" height="25.54"/><rect class="cls-2" x="578.25" y="178.44" width="70.06" height="70.06" transform="translate(330.57 -371.14) rotate(45)"/><rect class="cls-1" x="531.16" y="322.34" width="164.25" height="25.54" transform="translate(948.4 -278.17) rotate(90)"/><rect class="cls-1" x="567.27" y="391.7" width="58.79" height="25.54"/><rect class="cls-1" x="505.94" y="391.7" width="122.65" height="25.54" transform="translate(971.73 -162.8) rotate(90)"/><rect class="cls-1" x="465.4" y="343.14" width="114.63" height="25.54" transform="translate(1045.44 711.83) rotate(180)"/><rect class="cls-1" x="465.4" y="440.25" width="114.63" height="25.54" transform="translate(1045.44 906.04) rotate(180)"/><rect class="cls-3" x="420.52" y="62.92" width="315" height="509"/><path class="cls-1" d="M0,85.1V549.74l429.78,85.1V0ZM227.76,443l-59.65-5.25-88-226,52.42-5,66.63,171.35,71.63-184.45,69.38-6.57Z"/></g></g></svg>