<svg xmlns="http://www.w3.org/2000/svg" viewBox="0 0 747 634.84"><defs><style>.cls-1,.cls-2{fill:#fff;}.cls-2{opacity:0.35;}</style></defs><title>WORD_File_Logo_Icon_SVG_On_HOVER_Shaded_White</title><g id="Layer_2" data-name="Layer 2"><g id="Layer_3" data-name="Layer 3"><path class="cls-1" d="M0,85.1V549.74l429.78,85.1V0ZM282.7,437.46l-46.17-3.85L196.18,261.55l-38,165.54-39.48-3.29L78.31,214.42l34.85-2.91,26.68,146.33,33.9-151.38L221,202.52l36.72,161.73,33.8-167.61,47.33-3.95Z"/><rect class="cls-1" x="463.89" y="124.7" width="204.66" height="33.04"/><rect class="cls-1" x="463.89" y="193.45" width="204.66" height="33.04"/><rect class="cls-1" x="463.89" y="262.2" width="204.66" height="33.04"/><rect class="cls-1" x="463.89" y="331.85" width="204.66" height="33.04"/><rect class="cls-1" x="463.89" y="401.49" width="204.66" height="33.04"/><rect class="cls-1" x="463.89" y="471.13" width="204.66" height="33.04"/><path class="cls-1" d="M724,43.69H424V69.27H721.42V560.45H420V586H724a23.05,23.05,0,0,0,23-23V66.71A23.05,23.05,0,0,0,724,43.69Z"/><rect class="cls-2" x="417" y="60.23" width="315" height="509"/></g></g></svg>